<svg width="123" height="123" viewBox="0 0 123 123" fill="none" xmlns="http://www.w3.org/2000/svg">
<path fill-rule="evenodd" clip-rule="evenodd" d="M122.994 62.3364C122.998 62.0581 123 61.7793 123 61.5C123 27.5345 95.4655 0 61.5 0C27.5345 0 0 27.5345 0 61.5C0 95.4655 27.5345 123 61.5 123C62.5298 123 63.5537 122.975 64.5711 122.925C53.9241 115.201 47 102.659 47 88.5C47 65.028 66.0279 46 89.5 46C103.104 46 115.215 52.392 122.994 62.3364ZM121.729 74H115.685C110.952 66.7736 102.783 62 93.5 62C78.8645 62 67 73.8645 67 88.5C67 102.609 78.027 114.144 91.9331 114.954C107.019 106.347 118.108 91.5386 121.729 74Z" fill="#FFA700"/>
</svg>
